<svg xmlns="http://www.w3.org/2000/svg" viewBox="0 0 320 220"><rect width="100%" height="100%" fill="#e9e8d9"/><circle cx="160" cy="107" r="67" fill="#f5f0dc" stroke="#869676" stroke-width="2"/><path d="M160 78l28 21-10 31h-36l-10-31Z" fill="#536e54"/><path d="M131 48l3 27-30 22-10-7m76-50 25 25-6 17m38 7-27 9-9 36 17 20m-61 19 13-26-24-25-29 5" fill="#6a8162"/><path d="M134 75l-2 24m56 0 7-34m-17 65 13 4m-49-4-6-7m25 24-1-17" stroke="#87977c" stroke-width="2"/><ellipse cx="160" cy="184" rx="77" ry="6" fill="#718164" opacity=".12"/></svg>